<?xml version="1.0" standalone="no"?>
<!DOCTYPE svg PUBLIC "-//W3C//DTD SVG 20010904//EN"
 "http://www.w3.org/TR/2001/REC-SVG-20010904/DTD/svg10.dtd">
<svg version="1.0" xmlns="http://www.w3.org/2000/svg"
 width="247.000000pt" height="248.000000pt" viewBox="0 0 247.000000 248.000000"
 preserveAspectRatio="xMidYMid meet">


<linearGradient id="Gradient1" x1="0" x2="0" y1="1" y2="0">
        <stop class="stop1" offset="0%" stop-color="#9477b4"/>
        <stop class="stop2" offset="100%" stop-color="#fc73b4"/>
</linearGradient>
<g transform="translate(0.000000,248.000000) scale(0.100000,-0.100000)"
fill="url(#Gradient1)" stroke="none">
<path d="M1367 2400 l-135 -78 -127 74 c-69 41 -133 74 -140 74 -8 0 -152 -80
-322 -179 l-308 -178 -3 -169 -3 -169 -165 -94 -164 -94 2 -369 3 -370 160
-93 160 -93 5 -148 5 -147 315 -183 c281 -163 317 -181 335 -170 65 41 241
139 250 139 5 0 68 -34 138 -75 l129 -75 316 183 317 183 5 148 5 148 163 94
162 94 -1 311 c-1 171 -4 337 -8 370 l-6 59 -157 91 -158 90 -2 169 -3 168
-317 183 -316 183 -135 -77z m-264 -170 l57 -32 0 -464 0 -464 -21 0 c-11 0
-32 9 -46 20 -31 24 -90 26 -121 4 -114 -80 -7 -256 113 -185 20 12 45 21 56
21 19 0 19 -11 19 -424 l0 -424 -92 -52 c-51 -29 -98 -53 -104 -53 -6 0 -119
62 -252 139 l-242 139 0 101 c0 98 1 101 25 112 14 7 46 12 71 12 39 0 51 5
80 34 25 25 34 43 34 67 0 49 -32 96 -73 107 -51 14 -84 4 -120 -38 -62 -73
-70 -72 -209 7 l-123 70 -3 102 c-3 114 -1 117 65 81 45 -24 65 -25 103 -5 40
21 60 53 60 98 0 31 -7 46 -34 73 -40 40 -83 45 -134 14 -60 -37 -62 -33 -62
98 l0 118 125 72 c123 72 125 72 155 57 16 -8 36 -28 45 -45 35 -67 119 -82
174 -31 26 24 31 36 31 76 0 63 -39 105 -99 105 -22 0 -56 8 -76 17 l-35 17 0
125 0 126 247 142 247 143 40 -24 c23 -13 67 -38 99 -56z m642 -61 l245 -141
0 -127 0 -127 -29 -17 c-16 -9 -49 -17 -73 -17 -36 0 -50 -6 -74 -31 -23 -24
-29 -39 -29 -75 0 -39 5 -50 33 -75 43 -38 98 -40 141 -4 16 14 32 34 36 44 3
9 20 25 39 33 l33 16 127 -71 126 -72 0 -117 c0 -113 -1 -118 -21 -118 -11 0
-32 9 -46 20 -31 24 -73 26 -113 5 -38 -20 -50 -43 -50 -97 0 -83 85 -131 155
-89 69 40 75 34 75 -78 l0 -98 -126 -73 c-150 -86 -156 -87 -215 -8 -24 33
-72 48 -114 37 -77 -21 -103 -123 -45 -180 25 -26 36 -30 77 -28 27 1 58 -3
71 -10 21 -11 22 -18 22 -115 l0 -104 -245 -141 -244 -141 -96 56 -95 56 0
424 0 424 22 0 c12 0 30 -8 41 -18 12 -11 35 -17 64 -17 38 0 49 5 74 33 22
25 29 42 29 75 -1 89 -89 135 -168 87 -66 -41 -62 -68 -60 446 l3 466 90 53
c50 29 91 54 93 54 1 1 113 -62 247 -140z"/>
<path d="M753 2015 c-37 -16 -63 -60 -63 -106 0 -46 56 -99 104 -99 l36 0 0
-127 -1 -128 -112 -75 -112 -76 -2 -209 -3 -210 115 -50 115 -50 0 -133 c0
-147 6 -134 -74 -158 -70 -21 -94 -119 -41 -174 15 -15 38 -30 52 -33 61 -11
133 36 133 87 0 12 16 37 35 56 l35 34 -2 209 -3 208 -112 51 -113 51 0 118 0
118 115 78 114 78 1 202 0 203 -26 16 c-14 10 -34 36 -45 60 -14 28 -32 48
-54 58 -40 19 -51 19 -92 1z"/>
<path d="M1624 2016 c-34 -15 -64 -51 -64 -77 0 -9 -16 -27 -35 -40 l-35 -24
0 -197 0 -198 115 -77 116 -76 -3 -125 -3 -124 -112 -51 -113 -50 0 -204 0
-204 35 -30 c20 -18 39 -47 45 -68 18 -66 71 -97 135 -80 64 18 93 88 63 154
-13 28 -55 55 -86 55 -37 0 -42 19 -42 155 l0 131 113 50 112 50 3 207 2 207
-115 76 -115 77 0 129 0 128 36 0 c87 0 130 118 66 182 -34 33 -77 42 -118 24z"/>
</g>
</svg>
