<?xml version="1.0" encoding="utf-8"?>
<!-- Svg Vector Icons : http://www.onlinewebfonts.com/icon -->
<!DOCTYPE svg PUBLIC "-//W3C//DTD SVG 1.1//EN" "http://www.w3.org/Graphics/SVG/1.1/DTD/svg11.dtd">
<svg version="1.1" xmlns="http://www.w3.org/2000/svg" xmlns:xlink="http://www.w3.org/1999/xlink" x="0px" y="0px"
    viewBox="0 0 1000 1000" enable-background="new 0 0 1000 1000" xml:space="preserve">
    <metadata> Svg Vector Icons : http://www.onlinewebfonts.com/icon </metadata>
    <linearGradient id="Gradient1" x1="0" x2="0" y1="0" y2="1">
        <stop class="stop1" offset="0%" stop-color="#4286f4"/>
        <stop class="stop2" offset="100%" stop-color="#373B44"/>
    </linearGradient>
    <g fill="url(#Gradient1)">
        <path d="M500,97.7c-130.5,0-239.6,136.8-265.8,318.5L546.5,104C531.3,100.1,515.9,97.7,500,97.7z" />
        <path d="M606.9,130.2L228.5,508.5c0.4,30.7,3.3,60.4,8.1,89l422.7-422.7C643.1,157.3,625.6,142.1,606.9,130.2z" />
        <path
            d="M500,10c-186,0-336.9,219.4-336.9,490c0,270.6,150.9,490,336.9,490s336.9-219.4,336.9-490C836.9,229.4,686,10,500,10z M500,932.9c-166.8,0-302.4-194.2-302.4-432.9S333.2,67.1,500,67.1c166.8,0,302.4,194.2,302.4,432.9C802.4,738.7,666.8,932.9,500,932.9z" />
        <path
            d="M697.1,223.7L253.2,667.6c43,138.3,137.3,234.7,246.8,234.7c149.9,0,271.8-180.5,271.8-402.3C771.8,393,743.2,295.9,697.1,223.7z" />
    </g>
</svg>